<svg xmlns="http://www.w3.org/2000/svg" width="375" viewBox="0 0 375 375" height="375" version="1.0"><defs><clipPath id="a"><path d="M 205 81 L 353.992188 81 L 353.992188 165 L 205 165 Z M 205 81"/></clipPath></defs><path fill="#FFF" d="M-37.5 -37.5H412.5V412.5H-37.5z"/><path fill="#FFF" d="M-37.5 -37.5H412.5V412.5H-37.5z"/><path fill="#092C5C" d="M-37.5 -37.5H412.5V412.5H-37.5z"/><path fill="#6A9ED4" d="M 294.386719 98.28125 C 294.800781 98.015625 295.347656 98.117188 295.644531 98.503906 C 295.84375 98.375 296.046875 98.25 296.246094 98.125 C 294.144531 97.476562 291.980469 96.8125 289.789062 96.148438 C 289.769531 97.851562 289.753906 99.550781 289.742188 101.257812 Z M 294.386719 98.28125"/><path fill="#6A9ED4" d="M 277.742188 107.863281 C 277.746094 102.777344 277.757812 97.671875 277.78125 92.566406 C 275.351562 91.847656 272.980469 91.15625 270.730469 90.503906 C 270.699219 94.90625 270.671875 99.324219 270.660156 103.757812 Z M 277.742188 107.863281"/><path fill="#6A9ED4" d="M 245.300781 91.242188 L 241.972656 92.019531 C 241.460938 92.140625 240.953125 91.824219 240.832031 91.3125 C 240.714844 90.804688 241.03125 90.296875 241.539062 90.175781 L 245.234375 89.3125 C 245.46875 89.257812 245.71875 89.296875 245.925781 89.417969 L 245.933594 89.421875 C 245.925781 88.261719 245.914062 87.109375 245.898438 85.964844 C 241.921875 86.59375 237.984375 87.832031 238.289062 89.660156 C 238.414062 90.417969 241.433594 92.761719 245.960938 95.875 C 245.960938 94.449219 245.957031 93.03125 245.949219 91.617188 Z M 245.300781 91.242188"/><path fill="#6A9ED4" d="M 260.613281 97.933594 C 260.601562 94.472656 260.582031 91.027344 260.554688 87.59375 C 258.308594 86.964844 256.464844 86.457031 255.164062 86.109375 C 255.101562 88.96875 255.066406 91.835938 255.050781 94.707031 Z M 260.613281 97.933594"/><path fill="#6A9ED4" d="M 269.242188 102.9375 C 269.257812 98.640625 269.28125 94.359375 269.316406 90.09375 C 266.636719 89.320312 264.152344 88.613281 261.976562 87.996094 C 262.003906 91.566406 262.023438 95.15625 262.035156 98.757812 Z M 269.242188 102.9375"/><path fill="#6A9ED4" d="M 253.636719 93.886719 C 253.652344 91.167969 253.6875 88.453125 253.746094 85.746094 C 253.460938 85.671875 253.242188 85.625 253.121094 85.601562 C 252.042969 85.414062 249.769531 85.472656 247.320312 85.769531 C 247.335938 87.25 247.347656 88.742188 247.359375 90.246094 Z M 253.636719 93.886719"/><path fill="#6A9ED4" d="M 288.316406 102.171875 C 288.332031 100.019531 288.351562 97.867188 288.371094 95.71875 C 287.050781 95.320312 285.71875 94.921875 284.394531 94.527344 C 284.382812 97.917969 284.375 101.3125 284.367188 104.699219 Z M 288.316406 102.171875"/><path fill="#6A9ED4" d="M 262.042969 100.949219 C 262.046875 102.746094 262.050781 104.539062 262.050781 106.335938 C 264.445312 107.839844 266.863281 109.339844 269.234375 110.796875 C 269.234375 108.902344 269.234375 107.011719 269.238281 105.121094 Z M 262.042969 100.949219"/><path fill="#6A9ED4" d="M 272.5 112.308594 L 276.835938 109.527344 L 270.65625 105.945312 C 270.652344 107.851562 270.652344 109.757812 270.652344 111.664062 C 271.175781 111.984375 271.691406 112.300781 272.207031 112.613281 C 272.277344 112.496094 272.375 112.386719 272.5 112.308594 Z M 272.5 112.308594"/><path fill="#6A9ED4" d="M 253.625 96.066406 L 247.371094 92.441406 C 247.378906 93.90625 247.382812 95.371094 247.382812 96.847656 C 249.28125 98.132812 251.394531 99.523438 253.632812 100.976562 C 253.625 99.339844 253.617188 97.707031 253.625 96.066406 Z M 253.625 96.066406"/><path fill="#6A9ED4" d="M 282.949219 105.613281 C 282.953125 101.777344 282.960938 97.9375 282.976562 94.101562 C 281.707031 93.726562 280.449219 93.351562 279.199219 92.984375 C 279.179688 98.007812 279.167969 103.03125 279.160156 108.039062 Z M 282.949219 105.613281"/><path fill="#6A9ED4" d="M 260.621094 100.125 L 255.039062 96.886719 C 255.035156 98.558594 255.046875 100.230469 255.058594 101.898438 C 256.859375 103.058594 258.730469 104.25 260.628906 105.445312 C 260.628906 103.667969 260.625 101.898438 260.621094 100.125 Z M 260.621094 100.125"/><path fill="#8AB5E1" d="M 289.742188 101.257812 C 289.753906 99.550781 289.769531 97.851562 289.789062 96.148438 C 289.316406 96.007812 288.84375 95.863281 288.371094 95.71875 C 288.351562 97.867188 288.332031 100.019531 288.316406 102.171875 Z M 289.742188 101.257812"/><path fill="#8AB5E1" d="M 284.367188 104.703125 C 284.375 101.3125 284.382812 97.917969 284.394531 94.527344 C 283.921875 94.382812 283.449219 94.242188 282.976562 94.101562 C 282.960938 97.9375 282.953125 101.777344 282.949219 105.613281 Z M 284.367188 104.703125"/><path fill="#8AB5E1" d="M 278.628906 108.378906 L 279.164062 108.039062 C 279.167969 103.03125 279.179688 98.007812 279.199219 92.984375 C 278.726562 92.84375 278.253906 92.703125 277.78125 92.566406 C 277.757812 97.671875 277.746094 102.777344 277.742188 107.863281 Z M 278.628906 108.378906"/><path fill="#8AB5E1" d="M 270.660156 103.757812 C 270.671875 99.324219 270.699219 94.90625 270.730469 90.503906 C 270.253906 90.367188 269.78125 90.230469 269.316406 90.09375 C 269.28125 94.359375 269.257812 98.640625 269.246094 102.9375 Z M 270.660156 103.757812"/><path fill="#8AB5E1" d="M 269.238281 105.121094 C 269.234375 107.011719 269.234375 108.902344 269.234375 110.796875 C 269.710938 111.085938 270.183594 111.378906 270.652344 111.664062 C 270.652344 109.757812 270.652344 107.851562 270.65625 105.945312 Z M 269.238281 105.121094"/><path fill="#8AB5E1" d="M 262.042969 100.949219 L 260.621094 100.125 C 260.625 101.898438 260.628906 103.667969 260.628906 105.445312 C 261.101562 105.742188 261.574219 106.039062 262.050781 106.335938 C 262.050781 104.539062 262.046875 102.746094 262.042969 100.949219 Z M 262.042969 100.949219"/><path fill="#8AB5E1" d="M 262.035156 98.757812 C 262.027344 95.15625 262.007812 91.566406 261.976562 87.996094 C 261.484375 87.855469 261.011719 87.722656 260.554688 87.59375 C 260.582031 91.027344 260.601562 94.472656 260.613281 97.933594 Z M 262.035156 98.757812"/><path fill="#8AB5E1" d="M 255.039062 96.886719 L 253.625 96.066406 C 253.617188 97.707031 253.625 99.339844 253.632812 100.976562 C 254.105469 101.28125 254.578125 101.589844 255.058594 101.898438 C 255.046875 100.230469 255.035156 98.558594 255.039062 96.886719 Z M 255.039062 96.886719"/><path fill="#8AB5E1" d="M 255.050781 94.707031 C 255.066406 91.835938 255.101562 88.96875 255.164062 86.109375 C 254.578125 85.953125 254.101562 85.832031 253.75 85.746094 C 253.6875 88.453125 253.65625 91.167969 253.636719 93.886719 Z M 255.050781 94.707031"/><path fill="#8AB5E1" d="M 245.949219 91.617188 C 245.957031 93.03125 245.960938 94.449219 245.960938 95.875 C 246.421875 96.191406 246.894531 96.515625 247.382812 96.847656 C 247.382812 95.371094 247.378906 93.90625 247.371094 92.441406 Z M 245.949219 91.617188"/><path fill="#8AB5E1" d="M 247.359375 90.246094 C 247.347656 88.742188 247.335938 87.25 247.320312 85.769531 C 246.847656 85.828125 246.375 85.894531 245.898438 85.96875 C 245.914062 87.109375 245.921875 88.261719 245.933594 89.421875 Z M 247.359375 90.246094"/><g clip-path="url(#a)"><path fill="#8AB5E1" d="M 287.039062 136.820312 L 295.863281 127.25 C 295.863281 127.25 295.863281 127.246094 295.859375 127.246094 C 295.921875 127.183594 295.980469 127.121094 296.039062 127.058594 C 297.078125 126.027344 298.117188 125.085938 299.175781 124.191406 C 299.644531 123.796875 300.117188 123.410156 300.597656 123.03125 C 302.25 121.734375 303.96875 120.539062 305.839844 119.34375 C 305.875 119.320312 305.910156 119.300781 305.945312 119.277344 C 306.414062 118.976562 306.890625 118.683594 307.367188 118.390625 C 309.757812 116.929688 312.226562 115.578125 314.769531 114.398438 C 315.167969 114.214844 315.566406 114.035156 315.96875 113.859375 C 315.835938 113.398438 316.0625 112.902344 316.519531 112.71875 C 317 112.523438 317.554688 112.753906 317.75 113.238281 L 320.308594 119.542969 C 320.359375 119.671875 320.378906 119.804688 320.375 119.9375 C 337.871094 110.402344 350.925781 101.910156 352.964844 97.597656 C 353.972656 95.464844 353.414062 92.664062 351.824219 90.929688 C 350.898438 89.921875 349.851562 88.929688 348.820312 88.019531 C 346.804688 90.570312 343.832031 92.816406 341.164062 94.625 C 340.320312 92.753906 339.628906 90.765625 338.816406 88.828125 C 341.210938 87.25 343.128906 85.761719 344.425781 84.464844 C 339.101562 80.972656 329.890625 80.351562 315.253906 86.835938 C 312.699219 87.96875 305.46875 92.335938 296.246094 98.125 C 296.046875 98.25 295.84375 98.378906 295.644531 98.503906 C 295.660156 98.527344 295.679688 98.542969 295.695312 98.566406 C 295.976562 99.007812 295.847656 99.59375 295.40625 99.875 L 273.523438 113.902344 C 273.367188 114.003906 273.1875 114.050781 273.011719 114.050781 C 272.703125 114.050781 272.394531 113.898438 272.214844 113.617188 C 272.191406 113.582031 272.179688 113.546875 272.160156 113.507812 C 251.1875 127.058594 230.621094 140.640625 230.621094 140.640625 C 230.621094 140.640625 222 126.21875 215.632812 127.246094 C 208.945312 128.324219 206.46875 141.726562 206.46875 141.726562 C 206.46875 141.726562 203.984375 159.597656 208.828125 164 C 213.632812 168.371094 251.355469 153.75 287.039062 136.820312 Z M 327.222656 95.351562 C 327.714844 95.171875 328.257812 95.421875 328.4375 95.910156 L 330.410156 101.273438 C 330.59375 101.761719 330.339844 102.308594 329.847656 102.488281 C 329.742188 102.527344 329.632812 102.546875 329.523438 102.546875 C 329.273438 102.546875 329.039062 102.4375 328.863281 102.265625 L 323.703125 105.035156 C 323.351562 103.484375 323.027344 101.925781 322.671875 100.378906 C 322.574219 99.957031 322.460938 99.539062 322.339844 99.121094 L 326.648438 96.503906 C 326.507812 96.03125 326.753906 95.523438 327.222656 95.351562 Z M 284.507812 126.175781 C 284.441406 126.191406 284.378906 126.199219 284.316406 126.199219 C 284.3125 126.199219 284.308594 126.195312 284.304688 126.195312 L 279.292969 128.886719 C 279.011719 127.855469 278.722656 126.828125 278.421875 125.800781 L 282.902344 123.078125 L 282.890625 123.027344 C 282.785156 122.515625 283.117188 122.015625 283.628906 121.910156 C 284.140625 121.804688 284.640625 122.132812 284.746094 122.644531 L 285.242188 125.058594 C 285.347656 125.570312 285.019531 126.070312 284.507812 126.175781 Z M 309.320312 113.613281 C 309.257812 113.628906 309.191406 113.632812 309.128906 113.632812 C 308.832031 113.632812 308.558594 113.492188 308.382812 113.265625 L 300.664062 117.410156 C 300.367188 115.855469 300.128906 114.289062 299.964844 112.714844 L 307.261719 108.28125 L 307.246094 108.203125 C 307.140625 107.691406 307.472656 107.191406 307.984375 107.085938 C 308.5 106.980469 308.996094 107.3125 309.101562 107.824219 L 310.058594 112.5 C 310.164062 113.011719 309.832031 113.511719 309.320312 113.613281 Z M 317.109375 102.300781 C 317.078125 102.203125 317.050781 102.105469 317.023438 102.011719 C 316.867188 101.511719 317.144531 100.980469 317.644531 100.824219 C 318.144531 100.671875 318.675781 100.949219 318.828125 101.449219 C 319.355469 103.144531 319.8125 104.882812 320.1875 106.617188 C 320.296875 107.128906 319.972656 107.632812 319.460938 107.742188 C 319.394531 107.757812 319.328125 107.765625 319.261719 107.765625 C 319.105469 107.765625 318.957031 107.726562 318.824219 107.65625 L 313.921875 110.289062 C 313.464844 108.566406 312.964844 106.851562 312.40625 105.15625 Z M 294.386719 116.101562 L 294.320312 115.816406 C 294.195312 115.304688 294.511719 114.796875 295.019531 114.671875 C 295.527344 114.550781 296.039062 114.863281 296.160156 115.375 L 297.089844 119.25 C 297.210938 119.757812 296.898438 120.265625 296.390625 120.390625 C 296.316406 120.40625 296.242188 120.414062 296.167969 120.414062 C 295.929688 120.414062 295.707031 120.320312 295.535156 120.164062 L 289.011719 123.667969 C 288.726562 122.402344 288.457031 121.132812 288.203125 119.859375 Z M 273.660156 128.691406 L 273.648438 128.613281 C 273.574219 128.097656 273.9375 127.617188 274.453125 127.542969 C 274.972656 127.46875 275.453125 127.832031 275.523438 128.347656 L 275.824219 130.445312 C 275.894531 130.964844 275.535156 131.441406 275.019531 131.515625 C 274.972656 131.523438 274.929688 131.527344 274.882812 131.527344 C 274.757812 131.527344 274.632812 131.496094 274.519531 131.449219 L 269.597656 134.09375 C 269.371094 133.25 269.15625 132.40625 268.949219 131.554688 Z M 264.078125 133.734375 C 264.558594 133.527344 265.113281 133.75 265.320312 134.230469 L 265.808594 135.355469 C 266.015625 135.835938 265.796875 136.390625 265.316406 136.597656 C 265.195312 136.652344 265.066406 136.675781 264.941406 136.675781 C 264.898438 136.675781 264.863281 136.664062 264.820312 136.660156 L 262.605469 137.847656 L 261.753906 135.925781 L 263.539062 134.839844 C 263.425781 134.398438 263.644531 133.921875 264.078125 133.734375 Z M 208.679688 137.269531 L 212.5 136.59375 C 213.015625 136.503906 213.507812 136.847656 213.597656 137.359375 C 213.691406 137.875 213.347656 138.367188 212.832031 138.457031 L 209.007812 139.132812 C 208.953125 139.144531 208.898438 139.148438 208.84375 139.148438 C 208.390625 139.148438 207.992188 138.828125 207.910156 138.367188 C 207.820312 137.855469 208.164062 137.363281 208.679688 137.269531 Z M 207.136719 144.09375 L 213.398438 142.878906 C 213.910156 142.777344 214.40625 143.113281 214.507812 143.628906 C 214.605469 144.140625 214.273438 144.636719 213.757812 144.738281 L 207.496094 145.953125 C 207.433594 145.964844 207.375 145.972656 207.316406 145.972656 C 206.871094 145.972656 206.472656 145.65625 206.386719 145.203125 C 206.285156 144.691406 206.621094 144.195312 207.136719 144.09375 Z M 207.316406 154.046875 C 206.828125 154.046875 206.414062 153.675781 206.371094 153.179688 C 206.328125 152.660156 206.714844 152.203125 207.234375 152.15625 C 209.34375 151.980469 211.464844 151.695312 213.546875 151.3125 C 214.058594 151.214844 214.554688 151.554688 214.648438 152.070312 C 214.742188 152.585938 214.402344 153.078125 213.886719 153.171875 C 211.75 153.566406 209.5625 153.859375 207.394531 154.042969 C 207.367188 154.046875 207.34375 154.046875 207.316406 154.046875 Z M 207.316406 154.046875"/></g><path fill="#8AB5E1" d="M 298.023438 131.5 L 287.066406 136.804688 C 290.753906 135.054688 294.417969 133.28125 298.023438 131.5 Z M 298.023438 131.5"/><path fill="#C1D2EE" d="M 333.664062 176.625 C 333.65625 171.355469 333.671875 166.082031 333.703125 160.808594 C 332.546875 157.152344 331.226562 153.109375 329.847656 148.96875 L 329.847656 175.460938 C 331.191406 175.941406 332.503906 176.351562 333.664062 176.625 Z M 333.664062 176.625"/><path fill="#C1D2EE" d="M 337.878906 176.035156 C 338.003906 175.257812 336.878906 171.101562 335.097656 165.28125 C 335.082031 169.15625 335.078125 173.027344 335.085938 176.894531 C 336.65625 177.105469 337.738281 176.90625 337.878906 176.035156 Z M 337.878906 176.035156"/><path fill="#C1D2EE" d="M 319.429688 120.84375 C 319.054688 120.84375 318.699219 120.621094 318.550781 120.25 L 316.1875 114.425781 L 316.1875 152.285156 C 316.660156 153.265625 317.125 154.246094 317.582031 155.214844 C 319.25 158.726562 320.96875 162.359375 322.765625 165.671875 C 323.011719 166.132812 322.84375 166.707031 322.382812 166.957031 C 322.238281 167.035156 322.085938 167.070312 321.933594 167.070312 C 321.597656 167.070312 321.269531 166.890625 321.097656 166.574219 C 319.394531 163.425781 317.765625 160.019531 316.1875 156.695312 L 316.1875 164.890625 C 318.414062 168.605469 320.101562 171.082031 320.859375 171.492188 C 321.464844 171.824219 322.28125 172.238281 323.230469 172.6875 L 323.230469 129.703125 C 322.015625 126.289062 320.890625 123.203125 319.941406 120.691406 C 319.890625 120.722656 319.839844 120.75 319.785156 120.773438 C 319.667969 120.820312 319.546875 120.84375 319.429688 120.84375 Z M 319.429688 120.84375"/><path fill="#C1D2EE" d="M 328.429688 174.929688 L 328.429688 144.734375 C 327.164062 140.988281 325.878906 137.25 324.652344 133.734375 L 324.652344 173.34375 C 325.828125 173.875 327.121094 174.421875 328.429688 174.929688 Z M 328.429688 174.929688"/><path fill="#C1D2EE" d="M 310.304688 144.839844 C 310.054688 144.378906 310.222656 143.804688 310.683594 143.554688 C 311.140625 143.304688 311.714844 143.472656 311.96875 143.929688 C 312.933594 145.695312 313.863281 147.519531 314.769531 149.359375 L 314.769531 114.398438 C 312.226562 115.578125 309.757812 116.929688 307.367188 118.390625 L 307.367188 149.140625 C 310.015625 154.066406 312.578125 158.710938 314.769531 162.480469 L 314.769531 153.707031 C 313.339844 150.710938 311.867188 147.6875 310.304688 144.839844 Z M 310.304688 144.839844"/><path fill="#C1D2EE" d="M 305.945312 119.277344 C 305.910156 119.300781 305.875 119.320312 305.839844 119.34375 C 303.96875 120.539062 302.25 121.734375 300.597656 123.03125 L 300.597656 136.367188 C 302.339844 139.699219 304.148438 143.132812 305.945312 146.492188 Z M 305.945312 119.277344"/><path fill="#C1D2EE" d="M 295.859375 127.246094 C 295.863281 127.246094 295.863281 127.25 295.863281 127.25 L 296.039062 127.058594 C 295.980469 127.121094 295.921875 127.183594 295.859375 127.246094 Z M 295.859375 127.246094"/><path fill="#C1D2EE" d="M 299.175781 124.191406 C 298.117188 125.085938 297.078125 126.027344 296.039062 127.058594 L 298.054688 131.484375 C 298.421875 132.195312 298.796875 132.917969 299.175781 133.644531 Z M 299.175781 124.191406"/><path fill="#93AEDB" d="M 335.085938 176.894531 C 335.078125 173.027344 335.082031 169.15625 335.097656 165.28125 C 334.667969 163.878906 334.199219 162.378906 333.703125 160.808594 C 333.671875 166.082031 333.65625 171.355469 333.664062 176.625 C 334.167969 176.742188 334.648438 176.835938 335.085938 176.894531 Z M 335.085938 176.894531"/><path fill="#93AEDB" d="M 329.847656 175.460938 L 329.847656 148.96875 C 329.382812 147.5625 328.90625 146.148438 328.429688 144.734375 L 328.429688 174.929688 C 328.902344 175.113281 329.378906 175.289062 329.847656 175.460938 Z M 329.847656 175.460938"/><path fill="#93AEDB" d="M 324.652344 173.34375 L 324.652344 133.734375 C 324.167969 132.351562 323.691406 131.003906 323.230469 129.707031 L 323.230469 172.6875 C 323.675781 172.902344 324.15625 173.121094 324.652344 173.34375 Z M 324.652344 173.34375"/><path fill="#93AEDB" d="M 314.769531 149.359375 C 315.25 150.332031 315.722656 151.308594 316.191406 152.285156 L 316.191406 114.425781 L 315.996094 113.949219 C 315.984375 113.917969 315.976562 113.886719 315.96875 113.859375 C 315.566406 114.035156 315.167969 114.214844 314.769531 114.398438 Z M 314.769531 149.359375"/><path fill="#93AEDB" d="M 315.871094 156.027344 C 315.507812 155.257812 315.140625 154.480469 314.769531 153.707031 L 314.769531 162.480469 C 315.261719 163.332031 315.738281 164.136719 316.191406 164.890625 L 316.191406 156.695312 C 316.082031 156.472656 315.976562 156.25 315.871094 156.027344 Z M 315.871094 156.027344"/><path fill="#93AEDB" d="M 307.367188 118.390625 C 306.890625 118.683594 306.414062 118.976562 305.945312 119.277344 L 305.945312 146.492188 C 306.421875 147.382812 306.894531 148.265625 307.367188 149.140625 Z M 307.367188 118.390625"/><path fill="#93AEDB" d="M 300.597656 123.03125 C 300.117188 123.410156 299.644531 123.796875 299.175781 124.191406 L 299.175781 133.644531 C 299.644531 134.542969 300.117188 135.449219 300.597656 136.367188 Z M 300.597656 123.03125"/><path fill="#FFF" d="M 341.164062 94.625 C 343.835938 92.816406 346.804688 90.566406 348.820312 88.019531 C 347.75 87.070312 346.699219 86.214844 345.824219 85.507812 C 345.679688 85.390625 345.539062 85.28125 345.40625 85.171875 C 345.09375 84.925781 344.769531 84.6875 344.425781 84.460938 C 343.128906 85.761719 341.214844 87.25 338.816406 88.828125 C 339.628906 90.765625 340.320312 92.753906 341.164062 94.625 Z M 341.164062 94.625"/><path fill="#16213D" d="M 273.011719 114.050781 C 273.1875 114.050781 273.367188 114.003906 273.523438 113.902344 L 295.40625 99.875 C 295.847656 99.59375 295.976562 99.007812 295.695312 98.566406 C 295.679688 98.542969 295.660156 98.523438 295.644531 98.503906 C 295.347656 98.117188 294.800781 98.015625 294.386719 98.28125 L 289.742188 101.257812 L 288.3125 102.171875 L 284.367188 104.703125 L 282.949219 105.613281 L 279.160156 108.039062 L 278.628906 108.378906 L 278.683594 108.410156 C 279.136719 108.675781 279.289062 109.253906 279.027344 109.707031 C 278.851562 110.007812 278.535156 110.175781 278.207031 110.175781 C 278.046875 110.175781 277.882812 110.136719 277.734375 110.050781 L 276.835938 109.527344 L 272.5 112.308594 C 272.375 112.390625 272.277344 112.496094 272.207031 112.613281 C 272.042969 112.878906 272.019531 113.214844 272.160156 113.507812 C 272.175781 113.542969 272.191406 113.582031 272.214844 113.617188 C 272.394531 113.898438 272.703125 114.050781 273.011719 114.050781 Z M 273.011719 114.050781"/><path fill="#16213D" d="M 320.308594 119.539062 L 317.75 113.238281 C 317.554688 112.753906 317 112.519531 316.519531 112.71875 C 316.0625 112.902344 315.835938 113.398438 315.96875 113.859375 C 315.980469 113.890625 315.984375 113.917969 315.996094 113.949219 L 316.191406 114.425781 L 318.550781 120.25 C 318.703125 120.621094 319.054688 120.84375 319.429688 120.84375 C 319.550781 120.84375 319.667969 120.820312 319.785156 120.773438 C 319.839844 120.75 319.894531 120.722656 319.941406 120.691406 C 320.203125 120.523438 320.359375 120.238281 320.375 119.9375 C 320.378906 119.804688 320.359375 119.671875 320.308594 119.539062 Z M 320.308594 119.539062"/><path fill="#16213D" d="M 270.660156 103.757812 L 269.246094 102.9375 L 262.035156 98.757812 L 260.613281 97.933594 L 255.050781 94.707031 L 253.636719 93.886719 L 247.359375 90.246094 L 245.933594 89.421875 L 245.925781 89.417969 C 245.71875 89.296875 245.46875 89.257812 245.234375 89.3125 L 241.539062 90.175781 C 241.03125 90.296875 240.714844 90.804688 240.832031 91.3125 C 240.953125 91.824219 241.460938 92.140625 241.96875 92.019531 L 245.300781 91.242188 L 245.945312 91.617188 L 247.371094 92.441406 L 253.621094 96.066406 L 255.039062 96.890625 L 260.621094 100.125 L 262.042969 100.949219 L 269.238281 105.121094 L 270.65625 105.945312 L 276.835938 109.527344 L 277.734375 110.050781 C 277.882812 110.136719 278.046875 110.175781 278.207031 110.175781 C 278.535156 110.175781 278.851562 110.007812 279.027344 109.707031 C 279.292969 109.253906 279.136719 108.675781 278.683594 108.410156 L 278.628906 108.378906 L 277.742188 107.863281 Z M 270.660156 103.757812"/><path fill="#16213D" d="M 311.96875 143.929688 C 311.714844 143.472656 311.140625 143.304688 310.683594 143.554688 C 310.222656 143.804688 310.054688 144.378906 310.304688 144.839844 C 311.867188 147.6875 313.339844 150.710938 314.769531 153.707031 C 315.140625 154.480469 315.507812 155.257812 315.871094 156.027344 C 315.976562 156.25 316.082031 156.472656 316.1875 156.695312 C 317.765625 160.019531 319.394531 163.425781 321.097656 166.574219 C 321.269531 166.890625 321.597656 167.070312 321.933594 167.070312 C 322.085938 167.070312 322.238281 167.035156 322.382812 166.957031 C 322.84375 166.707031 323.011719 166.132812 322.765625 165.671875 C 320.96875 162.359375 319.25 158.726562 317.582031 155.214844 C 317.125 154.246094 316.660156 153.265625 316.191406 152.285156 C 315.722656 151.308594 315.25 150.332031 314.769531 149.359375 C 313.863281 147.519531 312.933594 145.695312 311.96875 143.929688 Z M 311.96875 143.929688"/><path fill="#FFF" d="M 322.671875 100.378906 C 323.027344 101.929688 323.351562 103.484375 323.703125 105.039062 L 328.863281 102.265625 C 328.769531 102.171875 328.683594 102.0625 328.632812 101.925781 L 326.660156 96.566406 C 326.65625 96.546875 326.652344 96.527344 326.648438 96.507812 L 322.339844 99.121094 C 322.460938 99.539062 322.574219 99.957031 322.671875 100.378906 Z M 322.671875 100.378906"/><path fill="#FFF" d="M 313.925781 110.289062 L 318.828125 107.65625 C 318.585938 107.53125 318.398438 107.304688 318.335938 107.015625 C 317.996094 105.433594 317.582031 103.851562 317.109375 102.300781 L 312.40625 105.15625 C 312.96875 106.851562 313.464844 108.566406 313.925781 110.289062 Z M 313.925781 110.289062"/><path fill="#FFF" d="M 307.261719 108.28125 L 299.964844 112.714844 C 300.128906 114.289062 300.367188 115.855469 300.664062 117.410156 L 308.382812 113.265625 C 308.296875 113.152344 308.234375 113.023438 308.203125 112.878906 Z M 307.261719 108.28125"/><path fill="#FFF" d="M 289.011719 123.667969 L 295.535156 120.164062 C 295.398438 120.042969 295.292969 119.882812 295.25 119.691406 L 294.386719 116.101562 L 288.203125 119.859375 C 288.457031 121.132812 288.726562 122.402344 289.011719 123.667969 Z M 289.011719 123.667969"/><path fill="#FFF" d="M 283.386719 125.441406 L 282.902344 123.078125 L 278.421875 125.800781 C 278.722656 126.828125 279.011719 127.855469 279.292969 128.886719 L 284.304688 126.195312 C 283.867188 126.191406 283.480469 125.886719 283.386719 125.441406 Z M 283.386719 125.441406"/><path fill="#FFF" d="M 274.519531 131.449219 C 274.222656 131.328125 273.996094 131.054688 273.949219 130.710938 L 273.660156 128.691406 L 268.949219 131.554688 C 269.15625 132.40625 269.371094 133.25 269.597656 134.09375 Z M 274.519531 131.449219"/><path fill="#FFF" d="M 264.070312 136.105469 L 263.582031 134.980469 C 263.5625 134.933594 263.550781 134.886719 263.539062 134.839844 L 261.753906 135.925781 L 262.605469 137.851562 L 264.820312 136.660156 C 264.5 136.617188 264.207031 136.425781 264.070312 136.105469 Z M 264.070312 136.105469"/><path fill="#16213D" d="M 295.535156 120.164062 C 295.703125 120.320312 295.929688 120.414062 296.167969 120.414062 C 296.242188 120.414062 296.316406 120.40625 296.390625 120.390625 C 296.898438 120.265625 297.210938 119.757812 297.089844 119.25 L 296.160156 115.375 C 296.039062 114.863281 295.527344 114.550781 295.019531 114.671875 C 294.511719 114.796875 294.195312 115.304688 294.320312 115.816406 L 294.386719 116.101562 L 295.25 119.6875 C 295.292969 119.878906 295.398438 120.042969 295.535156 120.164062 Z M 295.535156 120.164062"/><path fill="#16213D" d="M 310.058594 112.5 L 309.101562 107.824219 C 309 107.3125 308.5 106.980469 307.984375 107.085938 C 307.472656 107.191406 307.144531 107.691406 307.246094 108.203125 L 307.261719 108.28125 L 308.203125 112.878906 C 308.230469 113.023438 308.296875 113.152344 308.382812 113.265625 C 308.558594 113.492188 308.832031 113.636719 309.128906 113.636719 C 309.191406 113.636719 309.253906 113.628906 309.320312 113.617188 C 309.832031 113.511719 310.164062 113.011719 310.058594 112.5 Z M 310.058594 112.5"/><path fill="#16213D" d="M 328.632812 101.925781 C 328.683594 102.0625 328.769531 102.171875 328.863281 102.265625 C 329.039062 102.4375 329.273438 102.546875 329.523438 102.546875 C 329.632812 102.546875 329.742188 102.527344 329.847656 102.488281 C 330.339844 102.308594 330.59375 101.761719 330.410156 101.273438 L 328.4375 95.910156 C 328.257812 95.421875 327.714844 95.171875 327.222656 95.351562 C 326.753906 95.523438 326.507812 96.03125 326.648438 96.507812 C 326.652344 96.527344 326.65625 96.546875 326.660156 96.566406 Z M 328.632812 101.925781"/><path fill="#16213D" d="M 284.746094 122.644531 C 284.640625 122.132812 284.140625 121.804688 283.628906 121.910156 C 283.117188 122.015625 282.785156 122.515625 282.890625 123.027344 L 282.902344 123.078125 L 283.386719 125.441406 C 283.480469 125.886719 283.867188 126.191406 284.304688 126.195312 C 284.308594 126.195312 284.3125 126.199219 284.316406 126.199219 C 284.378906 126.199219 284.441406 126.191406 284.507812 126.175781 C 285.019531 126.070312 285.347656 125.570312 285.242188 125.058594 Z M 284.746094 122.644531"/><path fill="#16213D" d="M 274.519531 131.449219 C 274.632812 131.496094 274.757812 131.527344 274.882812 131.527344 C 274.929688 131.527344 274.972656 131.523438 275.019531 131.515625 C 275.535156 131.441406 275.894531 130.964844 275.820312 130.445312 L 275.523438 128.347656 C 275.449219 127.832031 274.972656 127.46875 274.453125 127.542969 C 273.9375 127.617188 273.574219 128.097656 273.648438 128.613281 L 273.660156 128.691406 L 273.945312 130.710938 C 273.996094 131.054688 274.222656 131.328125 274.519531 131.449219 Z M 274.519531 131.449219"/><path fill="#16213D" d="M 263.582031 134.980469 L 264.070312 136.105469 C 264.207031 136.421875 264.5 136.617188 264.820312 136.660156 C 264.863281 136.664062 264.898438 136.675781 264.941406 136.675781 C 265.066406 136.675781 265.195312 136.652344 265.316406 136.597656 C 265.796875 136.390625 266.015625 135.835938 265.808594 135.355469 L 265.320312 134.230469 C 265.113281 133.75 264.558594 133.527344 264.078125 133.734375 C 263.644531 133.925781 263.425781 134.398438 263.539062 134.839844 C 263.550781 134.886719 263.5625 134.933594 263.582031 134.980469 Z M 263.582031 134.980469"/><path fill="#16213D" d="M 214.648438 152.070312 C 214.554688 151.554688 214.058594 151.214844 213.546875 151.3125 C 211.464844 151.695312 209.34375 151.980469 207.234375 152.15625 C 206.714844 152.203125 206.328125 152.660156 206.371094 153.179688 C 206.414062 153.675781 206.828125 154.046875 207.316406 154.046875 C 207.34375 154.046875 207.367188 154.046875 207.394531 154.042969 C 209.5625 153.859375 211.746094 153.566406 213.886719 153.171875 C 214.402344 153.078125 214.742188 152.585938 214.648438 152.070312 Z M 214.648438 152.070312"/><path fill="#16213D" d="M 208.84375 139.148438 C 208.898438 139.148438 208.953125 139.144531 209.007812 139.132812 L 212.832031 138.457031 C 213.347656 138.367188 213.691406 137.875 213.597656 137.359375 C 213.507812 136.847656 213.015625 136.503906 212.5 136.59375 L 208.679688 137.269531 C 208.164062 137.363281 207.820312 137.855469 207.910156 138.367188 C 207.992188 138.828125 208.390625 139.148438 208.84375 139.148438 Z M 208.84375 139.148438"/><path fill="#16213D" d="M 207.316406 145.972656 C 207.375 145.972656 207.4375 145.964844 207.496094 145.953125 L 213.757812 144.738281 C 214.273438 144.636719 214.609375 144.140625 214.507812 143.628906 C 214.410156 143.113281 213.914062 142.777344 213.398438 142.878906 L 207.136719 144.09375 C 206.621094 144.195312 206.289062 144.691406 206.386719 145.203125 C 206.472656 145.65625 206.871094 145.972656 207.316406 145.972656 Z M 207.316406 145.972656"/><path fill="#16213D" d="M 296.039062 127.058594 L 295.863281 127.25 L 287.039062 136.820312 L 287.066406 136.804688 L 298.023438 131.5 L 298.054688 131.484375 Z M 296.039062 127.058594"/><path fill="#16213D" d="M 318.335938 107.015625 C 318.398438 107.304688 318.585938 107.53125 318.828125 107.65625 C 318.957031 107.722656 319.105469 107.765625 319.261719 107.765625 C 319.328125 107.765625 319.394531 107.757812 319.460938 107.742188 C 319.972656 107.632812 320.296875 107.128906 320.1875 106.617188 C 319.8125 104.882812 319.359375 103.144531 318.832031 101.449219 C 318.675781 100.949219 318.144531 100.671875 317.644531 100.824219 C 317.144531 100.980469 316.867188 101.511719 317.023438 102.011719 C 317.050781 102.105469 317.078125 102.203125 317.109375 102.300781 C 317.582031 103.847656 317.996094 105.433594 318.335938 107.015625 Z M 318.335938 107.015625"/><g fill="#FFF"><g><g><path d="M 12.6875 -20.859375 L 12.71875 -18.0625 L 12.71875 0 C 11.863281 0.15625 10.84375 0.234375 9.65625 0.234375 C 8.46875 0.234375 7.46875 0.15625 6.65625 0 L 6.65625 -20.859375 L 4.234375 -20.828125 L 0.34375 -20.828125 C 0.1875 -21.554688 0.109375 -22.394531 0.109375 -23.34375 C 0.109375 -24.289062 0.1875 -25.128906 0.34375 -25.859375 L 19.078125 -25.859375 C 19.285156 -25.203125 19.390625 -24.40625 19.390625 -23.46875 C 19.390625 -22.539062 19.132812 -21.867188 18.625 -21.453125 C 18.125 -21.035156 17.316406 -20.828125 16.203125 -20.828125 L 15.109375 -20.828125 L 12.71875 -20.859375 Z M 12.6875 -20.859375" transform="translate(119.95 201.663)"/></g></g></g><g fill="#FFF"><g><g><path d="M 15.90625 -17.21875 C 17.71875 -15.40625 18.625 -12.804688 18.625 -9.421875 C 18.625 -7.910156 18.425781 -6.535156 18.03125 -5.296875 C 17.644531 -4.054688 17.078125 -3 16.328125 -2.125 C 15.585938 -1.257812 14.675781 -0.59375 13.59375 -0.125 C 12.507812 0.332031 11.257812 0.5625 9.84375 0.5625 C 8.425781 0.5625 7.179688 0.320312 6.109375 -0.15625 C 5.035156 -0.632812 4.125 -1.304688 3.375 -2.171875 C 2.632812 -3.046875 2.078125 -4.097656 1.703125 -5.328125 C 1.328125 -6.566406 1.140625 -7.929688 1.140625 -9.421875 C 1.140625 -10.941406 1.328125 -12.3125 1.703125 -13.53125 C 2.078125 -14.757812 2.628906 -15.8125 3.359375 -16.6875 C 4.097656 -17.570312 5.007812 -18.253906 6.09375 -18.734375 C 7.175781 -19.210938 8.425781 -19.453125 9.84375 -19.453125 C 12.34375 -19.453125 14.363281 -18.707031 15.90625 -17.21875 Z M 9.875 -15.03125 C 9.320312 -15.03125 8.875 -14.894531 8.53125 -14.625 C 8.195312 -14.363281 7.925781 -14.003906 7.71875 -13.546875 C 7.519531 -13.097656 7.378906 -12.578125 7.296875 -11.984375 C 7.222656 -11.390625 7.1875 -10.753906 7.1875 -10.078125 C 7.1875 -9.015625 7.21875 -8.097656 7.28125 -7.328125 C 7.34375 -6.554688 7.46875 -5.910156 7.65625 -5.390625 C 7.851562 -4.878906 8.117188 -4.492188 8.453125 -4.234375 C 8.796875 -3.984375 9.25 -3.859375 9.8125 -3.859375 C 10.914062 -3.859375 11.644531 -4.34375 12 -5.3125 C 12.351562 -6.289062 12.53125 -7.675781 12.53125 -9.46875 C 12.53125 -11.28125 12.351562 -12.660156 12 -13.609375 C 11.644531 -14.554688 10.9375 -15.03125 9.875 -15.03125 Z M 9.875 -15.03125" transform="translate(139.256 201.663)"/></g></g></g><g fill="#FFF"><g><g><path d="M 2.15625 -6.390625 L 2.15625 -14.15625 C 2.15625 -15.800781 1.851562 -17.066406 1.25 -17.953125 C 2.1875 -18.773438 3.320312 -19.1875 4.65625 -19.1875 C 5.988281 -19.1875 6.894531 -18.882812 7.375 -18.28125 C 7.863281 -17.675781 8.109375 -16.753906 8.109375 -15.515625 L 8.109375 -7.5 C 8.109375 -6.613281 8.207031 -5.96875 8.40625 -5.5625 C 8.601562 -5.15625 9.132812 -4.953125 10 -4.953125 C 10.832031 -4.953125 11.675781 -5.382812 12.53125 -6.25 L 12.53125 -18.890625 C 13.363281 -19.046875 14.335938 -19.125 15.453125 -19.125 C 16.554688 -19.125 17.550781 -19.046875 18.4375 -18.890625 L 18.4375 -5.40625 C 18.4375 -4.050781 18.789062 -3.132812 19.5 -2.65625 C 19.375 -2.144531 19.132812 -1.59375 18.78125 -1 C 18.425781 -0.40625 18.0625 0.0234375 17.6875 0.296875 C 15.613281 0.222656 14.125 -0.65625 13.21875 -2.34375 C 11.21875 -0.550781 9.335938 0.34375 7.578125 0.34375 C 5.804688 0.34375 4.457031 -0.265625 3.53125 -1.484375 C 2.613281 -2.710938 2.15625 -4.347656 2.15625 -6.390625 Z M 2.15625 -6.390625" transform="translate(159.016 201.663)"/></g></g></g><g fill="#FFF"><g><g><path d="M 1.140625 -16.171875 C 1.265625 -16.671875 1.503906 -17.226562 1.859375 -17.84375 C 2.210938 -18.46875 2.566406 -18.914062 2.921875 -19.1875 C 5.234375 -19.019531 6.847656 -17.875 7.765625 -15.75 C 8.722656 -18.019531 10.300781 -19.15625 12.5 -19.15625 C 13.15625 -19.15625 13.988281 -19.054688 15 -18.859375 C 15 -18.078125 14.863281 -17.148438 14.59375 -16.078125 C 14.332031 -15.003906 13.972656 -14.085938 13.515625 -13.328125 C 13.085938 -13.472656 12.441406 -13.597656 11.578125 -13.703125 C 10.316406 -13.703125 9.285156 -13.0625 8.484375 -11.78125 L 8.484375 0 C 7.648438 0.15625 6.671875 0.234375 5.546875 0.234375 C 4.421875 0.234375 3.429688 0.15625 2.578125 0 L 2.578125 -12.234375 C 2.578125 -14.117188 2.097656 -15.429688 1.140625 -16.171875 Z M 1.140625 -16.171875" transform="translate(179.798 201.663)"/></g></g></g><g fill="#FFF"><g><g><path d="M 1.140625 -16.171875 C 1.265625 -16.671875 1.503906 -17.226562 1.859375 -17.84375 C 2.210938 -18.46875 2.566406 -18.914062 2.921875 -19.1875 C 5.234375 -19.019531 6.847656 -17.875 7.765625 -15.75 C 8.722656 -18.019531 10.300781 -19.15625 12.5 -19.15625 C 13.15625 -19.15625 13.988281 -19.054688 15 -18.859375 C 15 -18.078125 14.863281 -17.148438 14.59375 -16.078125 C 14.332031 -15.003906 13.972656 -14.085938 13.515625 -13.328125 C 13.085938 -13.472656 12.441406 -13.597656 11.578125 -13.703125 C 10.316406 -13.703125 9.285156 -13.0625 8.484375 -11.78125 L 8.484375 0 C 7.648438 0.15625 6.671875 0.234375 5.546875 0.234375 C 4.421875 0.234375 3.429688 0.15625 2.578125 0 L 2.578125 -12.234375 C 2.578125 -14.117188 2.097656 -15.429688 1.140625 -16.171875 Z M 1.140625 -16.171875" transform="translate(194.826 201.663)"/></g></g></g><g fill="#FFF"><g><g><path d="M 18.328125 -2.71875 C 18.203125 -2.195312 17.960938 -1.628906 17.609375 -1.015625 C 17.253906 -0.410156 16.882812 0.0234375 16.5 0.296875 C 14.738281 0.253906 13.378906 -0.410156 12.421875 -1.703125 C 10.773438 -0.191406 8.992188 0.5625 7.078125 0.5625 C 6.097656 0.5625 5.238281 0.40625 4.5 0.09375 C 3.769531 -0.21875 3.148438 -0.640625 2.640625 -1.171875 C 2.140625 -1.703125 1.765625 -2.3125 1.515625 -3 C 1.265625 -3.695312 1.140625 -4.425781 1.140625 -5.1875 C 1.140625 -6.269531 1.332031 -7.222656 1.71875 -8.046875 C 2.113281 -8.867188 2.648438 -9.550781 3.328125 -10.09375 C 4.015625 -10.632812 4.8125 -11.039062 5.71875 -11.3125 C 6.625 -11.59375 7.59375 -11.734375 8.625 -11.734375 C 9.207031 -11.734375 9.71875 -11.726562 10.15625 -11.71875 C 10.601562 -11.707031 10.988281 -11.6875 11.3125 -11.65625 L 11.3125 -12.375 C 11.3125 -13.96875 10.492188 -14.765625 8.859375 -14.765625 C 7.796875 -14.765625 5.941406 -14.359375 3.296875 -13.546875 C 2.535156 -14.429688 2.054688 -15.8125 1.859375 -17.6875 C 2.460938 -17.90625 3.132812 -18.113281 3.875 -18.3125 C 4.625 -18.519531 5.390625 -18.695312 6.171875 -18.84375 C 6.953125 -19 7.71875 -19.117188 8.46875 -19.203125 C 9.226562 -19.296875 9.914062 -19.34375 10.53125 -19.34375 C 11.40625 -19.34375 12.253906 -19.21875 13.078125 -18.96875 C 13.898438 -18.71875 14.617188 -18.332031 15.234375 -17.8125 C 15.859375 -17.289062 16.351562 -16.617188 16.71875 -15.796875 C 17.082031 -14.984375 17.265625 -14.007812 17.265625 -12.875 L 17.265625 -5.1875 C 17.265625 -4.019531 17.617188 -3.195312 18.328125 -2.71875 Z M 6.890625 -5.5625 C 6.890625 -4.375 7.570312 -3.78125 8.9375 -3.78125 C 9.644531 -3.78125 10.4375 -4.148438 11.3125 -4.890625 L 11.3125 -7.90625 C 10.8125 -7.9375 10.390625 -7.957031 10.046875 -7.96875 C 9.710938 -7.976562 9.457031 -7.984375 9.28125 -7.984375 C 7.6875 -7.984375 6.890625 -7.175781 6.890625 -5.5625 Z M 6.890625 -5.5625" transform="translate(209.854 201.663)"/></g></g></g><g fill="#FFF"><g><g><path d="M 13.328125 -18.9375 C 13.472656 -18.226562 13.546875 -17.519531 13.546875 -16.8125 C 13.546875 -16.101562 13.472656 -15.410156 13.328125 -14.734375 L 8.828125 -14.796875 L 8.828125 -6.09375 C 8.828125 -4.90625 9.378906 -4.3125 10.484375 -4.3125 L 12.609375 -4.3125 C 12.929688 -3.40625 13.09375 -2.570312 13.09375 -1.8125 C 13.09375 -1.0625 13.046875 -0.519531 12.953125 -0.1875 C 11.078125 0.0625 9.359375 0.1875 7.796875 0.1875 C 4.617188 0.1875 3.03125 -1.566406 3.03125 -5.078125 L 3.03125 -14.765625 L 0.078125 -14.734375 C -0.0976562 -15.359375 -0.1875 -16.039062 -0.1875 -16.78125 C -0.1875 -17.53125 -0.0976562 -18.25 0.078125 -18.9375 L 3.03125 -18.859375 L 3.03125 -21.046875 C 3.03125 -22.335938 3.273438 -23.253906 3.765625 -23.796875 C 4.253906 -24.335938 5.082031 -24.609375 6.25 -24.609375 L 8.5625 -24.609375 L 8.828125 -24.34375 L 8.828125 -18.859375 Z M 13.328125 -18.9375" transform="translate(229.273 201.663)"/></g></g></g><g fill="#FFF"><g><g><path d="M 17 -7.53125 L 7.125 -7.53125 C 7.164062 -6.394531 7.453125 -5.507812 7.984375 -4.875 C 8.515625 -4.25 9.382812 -3.9375 10.59375 -3.9375 C 11.207031 -3.9375 11.910156 -4.023438 12.703125 -4.203125 C 13.492188 -4.378906 14.410156 -4.671875 15.453125 -5.078125 C 16.285156 -4.210938 16.800781 -3.050781 17 -1.59375 C 14.976562 -0.15625 12.503906 0.5625 9.578125 0.5625 C 7.984375 0.5625 6.648438 0.3125 5.578125 -0.1875 C 4.503906 -0.695312 3.632812 -1.40625 2.96875 -2.3125 C 2.300781 -3.21875 1.828125 -4.285156 1.546875 -5.515625 C 1.273438 -6.753906 1.140625 -8.109375 1.140625 -9.578125 C 1.140625 -10.992188 1.304688 -12.300781 1.640625 -13.5 C 1.984375 -14.695312 2.5 -15.738281 3.1875 -16.625 C 3.882812 -17.507812 4.769531 -18.203125 5.84375 -18.703125 C 6.914062 -19.203125 8.171875 -19.453125 9.609375 -19.453125 C 10.828125 -19.453125 11.921875 -19.25 12.890625 -18.84375 C 13.859375 -18.445312 14.679688 -17.894531 15.359375 -17.1875 C 16.046875 -16.476562 16.570312 -15.628906 16.9375 -14.640625 C 17.300781 -13.660156 17.484375 -12.59375 17.484375 -11.4375 C 17.484375 -9.894531 17.320312 -8.59375 17 -7.53125 Z M 7.078125 -11.625 L 12.078125 -11.625 L 12.078125 -12.046875 C 12.078125 -12.972656 11.867188 -13.738281 11.453125 -14.34375 C 11.035156 -14.945312 10.410156 -15.25 9.578125 -15.25 C 8.765625 -15.25 8.160156 -14.960938 7.765625 -14.390625 C 7.378906 -13.828125 7.148438 -12.90625 7.078125 -11.625 Z M 7.078125 -11.625" transform="translate(243.469 201.663)"/></g></g></g><g fill="#FFF"><g><g><path d="M 9.488281 -9.613281 L 9.488281 -10.695312 L 0.527344 -10.695312 L 0.527344 -9.613281 L 4.339844 -9.613281 L 4.339844 0 L 5.675781 0 L 5.675781 -9.613281 Z M 9.488281 -9.613281" transform="translate(172.112 233.641)"/></g></g></g><g fill="#FFF"><g><g><path d="M 4.542969 -8.433594 C 1.75 -8.433594 0.464844 -6.433594 0.464844 -4.109375 C 0.464844 -1.796875 1.75 0.21875 4.542969 0.21875 C 7.332031 0.21875 8.621094 -1.796875 8.621094 -4.109375 C 8.621094 -6.433594 7.332031 -8.433594 4.542969 -8.433594 Z M 4.542969 -0.804688 C 2.882812 -0.804688 1.921875 -2.1875 1.921875 -4.109375 C 1.921875 -6.046875 2.882812 -7.410156 4.542969 -7.410156 C 6.199219 -7.410156 7.164062 -6.046875 7.164062 -4.109375 C 7.164062 -2.1875 6.199219 -0.804688 4.542969 -0.804688 Z M 4.542969 -0.804688" transform="translate(182.524 233.641)"/></g></g></g><g fill="#FFF"><g><g><path d="M 7.96875 -8.214844 L 6.636719 -8.214844 L 6.636719 -4.605469 C 6.636719 -1.796875 5.613281 -0.835938 4.324219 -0.835938 C 3.210938 -0.835938 2.542969 -1.472656 2.417969 -2.402344 C 2.371094 -2.820312 2.355469 -3.269531 2.355469 -3.535156 L 2.355469 -8.214844 L 1.023438 -8.214844 L 1.023438 -3.285156 C 1.023438 -2.621094 1.039062 -2.292969 1.101562 -1.875 C 1.285156 -0.742188 2.277344 0.21875 3.984375 0.21875 C 4.820312 0.21875 5.425781 0.078125 6.125 -0.433594 L 6.636719 -1.394531 L 6.636719 0 L 7.96875 0 Z M 7.96875 -8.214844" transform="translate(192.533 233.641)"/></g></g></g><g fill="#FFF"><g><g><path d="M 4.371094 -8.402344 C 3.984375 -8.402344 3.566406 -8.261719 3.222656 -8.03125 L 2.480469 -6.929688 L 2.480469 -8.214844 L 1.148438 -8.214844 L 1.148438 0 L 2.480469 0 L 2.480469 -4.683594 C 2.480469 -6.558594 3.535156 -7.378906 4.929688 -7.285156 L 4.929688 -8.292969 C 4.773438 -8.371094 4.589844 -8.402344 4.371094 -8.402344 Z M 4.371094 -8.402344" transform="translate(202.635 233.641)"/></g></g></g><g fill="#FFF"><g><g><path d="M 1.8125 -10.914062 C 1.332031 -10.914062 0.960938 -10.542969 0.960938 -10.0625 C 0.960938 -9.582031 1.332031 -9.207031 1.8125 -9.207031 C 2.292969 -9.207031 2.667969 -9.582031 2.667969 -10.0625 C 2.667969 -10.542969 2.292969 -10.914062 1.8125 -10.914062 Z M 2.480469 0 L 2.480469 -8.214844 L 1.148438 -8.214844 L 1.148438 0 Z M 2.480469 0" transform="translate(212.954 233.641)"/></g></g></g><g fill="#FFF"><g><g><path d="M 2.742188 -7.132812 L 4.277344 -7.132812 L 4.277344 -8.15625 L 2.742188 -8.15625 L 2.742188 -10.0625 L 1.410156 -10.0625 L 1.410156 -8.15625 L 0.308594 -8.15625 L 0.308594 -7.132812 L 1.410156 -7.132812 L 1.410156 -2.339844 C 1.410156 -1.875 1.410156 -1.535156 1.425781 -1.316406 C 1.503906 -0.292969 2.03125 0.125 3.054688 0.125 C 3.425781 0.125 3.796875 0.109375 4.1875 0.046875 L 4.1875 -0.929688 C 3.148438 -0.804688 2.820312 -0.976562 2.757812 -1.765625 C 2.742188 -1.984375 2.742188 -2.125 2.742188 -2.402344 Z M 2.742188 -7.132812" transform="translate(217.572 233.641)"/></g></g></g><g fill="#FFF"><g><g><path d="M 1.566406 -1.765625 C 0.992188 -1.765625 0.574219 -1.347656 0.574219 -0.773438 C 0.574219 -0.203125 0.992188 0.21875 1.566406 0.21875 C 2.140625 0.21875 2.558594 -0.203125 2.558594 -0.773438 C 2.558594 -1.347656 2.140625 -1.765625 1.566406 -1.765625 Z M 1.566406 -1.765625" transform="translate(223.352 233.641)"/></g></g></g></svg>